<mxfile host="Electron" modified="2024-02-04T12:25:49.568Z" agent="Mozilla/5.0 (Windows NT 10.0; Win64; x64) AppleWebKit/537.36 (KHTML, like Gecko) draw.io/23.0.2 Chrome/120.0.6099.109 Electron/28.1.0 Safari/537.36" etag="cVPw7dk6We65OuhAfqWG" version="23.0.2" type="device">
  <diagram name="Page-1" id="OpCISA3ywY_yj9mlbjhD">
    <mxGraphModel dx="794" dy="511" grid="1" gridSize="10" guides="1" tooltips="1" connect="1" arrows="1" fold="1" page="1" pageScale="1" pageWidth="827" pageHeight="1169" math="0" shadow="0">
      <root>
        <mxCell id="0" />
        <mxCell id="1" parent="0" />
        <UserObject label="Parent" type="externalEntity" source="" flow="" placeholders="1" id="PASu_jCGdVpCxUYywdkp-1">
          <mxCell style="shape=rectangle;whiteSpace=wrap;html=1;fillColor=#ffffff;strokeColor=#000000;align=center;verticalAlign=middle;fontColor=#232F3E;" vertex="1" parent="1">
            <mxGeometry x="35" y="65" width="65" height="35" as="geometry" />
          </mxCell>
        </UserObject>
        <UserObject label="Child&#39;s Counselor" type="externalEntity" source="" flow="" placeholders="1" id="PASu_jCGdVpCxUYywdkp-2">
          <mxCell style="shape=rectangle;whiteSpace=wrap;html=1;fillColor=#ffffff;strokeColor=#000000;align=center;verticalAlign=middle;fontColor=#232F3E;" vertex="1" parent="1">
            <mxGeometry x="5" y="130" width="125" height="35" as="geometry" />
          </mxCell>
        </UserObject>
        <UserObject label="Camp Administrator" type="externalEntity" source="" flow="" placeholders="1" id="PASu_jCGdVpCxUYywdkp-3">
          <mxCell style="shape=rectangle;whiteSpace=wrap;html=1;fillColor=#ffffff;strokeColor=#000000;align=center;verticalAlign=middle;fontColor=#232F3E;" vertex="1" parent="1">
            <mxGeometry y="227.5" width="135" height="35" as="geometry" />
          </mxCell>
        </UserObject>
        <UserObject label="Message System" type="process" source="1,2" flow="Messages" placeholders="1" id="PASu_jCGdVpCxUYywdkp-4">
          <mxCell style="shape=ellipse;perimeter=ellipsePerimeter;whiteSpace=wrap;html=1;fillColor=#ffffff;strokeColor=#000000;align=center;verticalAlign=middle;fontColor=#232F3E;" vertex="1" parent="1">
            <mxGeometry x="260" y="130" width="125" height="35" as="geometry" />
          </mxCell>
        </UserObject>
        <UserObject label="Messages" type="dataStore" source="4" flow="Messages" placeholders="1" id="PASu_jCGdVpCxUYywdkp-5">
          <mxCell style="html=1;dashed=0;whiteSpace=wrap;shape=partialRectangle;right=0;left=0;" vertex="1" parent="1">
            <mxGeometry x="560" y="97.5" width="85" height="35" as="geometry" />
          </mxCell>
        </UserObject>
        <UserObject label="Photo Sharing System" type="process" source="1" flow="Photos" placeholders="1" id="PASu_jCGdVpCxUYywdkp-6">
          <mxCell style="shape=ellipse;perimeter=ellipsePerimeter;whiteSpace=wrap;html=1;fillColor=#ffffff;strokeColor=#000000;align=center;verticalAlign=middle;fontColor=#232F3E;" vertex="1" parent="1">
            <mxGeometry x="250" width="145" height="35" as="geometry" />
          </mxCell>
        </UserObject>
        <UserObject label="Camp Photos" type="dataStore" source="6" flow="Photos" placeholders="1" id="PASu_jCGdVpCxUYywdkp-7">
          <mxCell style="html=1;dashed=0;whiteSpace=wrap;shape=partialRectangle;right=0;left=0;" vertex="1" parent="1">
            <mxGeometry x="550" width="105" height="35" as="geometry" />
          </mxCell>
        </UserObject>
        <UserObject label="Bi-weekly Feedback System" type="process" source="3" flow="Feedback to Parents" placeholders="1" id="PASu_jCGdVpCxUYywdkp-8">
          <mxCell style="shape=ellipse;perimeter=ellipsePerimeter;whiteSpace=wrap;html=1;fillColor=#ffffff;strokeColor=#000000;align=center;verticalAlign=middle;fontColor=#232F3E;" vertex="1" parent="1">
            <mxGeometry x="235" y="195" width="175" height="35" as="geometry" />
          </mxCell>
        </UserObject>
        <UserObject label="Parental Feedback System" type="process" source="1" flow="Parent Feedback" placeholders="1" id="PASu_jCGdVpCxUYywdkp-9">
          <mxCell style="shape=ellipse;perimeter=ellipsePerimeter;whiteSpace=wrap;html=1;fillColor=#ffffff;strokeColor=#000000;align=center;verticalAlign=middle;fontColor=#232F3E;" vertex="1" parent="1">
            <mxGeometry x="235" y="65" width="175" height="35" as="geometry" />
          </mxCell>
        </UserObject>
        <UserObject label="Feedback and Concerns" type="dataStore" source="8,9" flow="Feedback to/from Parents" placeholders="1" id="PASu_jCGdVpCxUYywdkp-10">
          <mxCell style="html=1;dashed=0;whiteSpace=wrap;shape=partialRectangle;right=0;left=0;" vertex="1" parent="1">
            <mxGeometry x="525" y="162.5" width="155" height="35" as="geometry" />
          </mxCell>
        </UserObject>
        <UserObject label="Notification System" type="process" source="3" flow="Notifications" placeholders="1" id="PASu_jCGdVpCxUYywdkp-11">
          <mxCell style="shape=ellipse;perimeter=ellipsePerimeter;whiteSpace=wrap;html=1;fillColor=#ffffff;strokeColor=#000000;align=center;verticalAlign=middle;fontColor=#232F3E;" vertex="1" parent="1">
            <mxGeometry x="255" y="260" width="135" height="35" as="geometry" />
          </mxCell>
        </UserObject>
        <UserObject label="Event and Notice Information" type="dataStore" source="11" flow="Notifications" placeholders="1" id="PASu_jCGdVpCxUYywdkp-12">
          <mxCell style="html=1;dashed=0;whiteSpace=wrap;shape=partialRectangle;right=0;left=0;" vertex="1" parent="1">
            <mxGeometry x="510" y="260" width="185" height="35" as="geometry" />
          </mxCell>
        </UserObject>
        <mxCell id="PASu_jCGdVpCxUYywdkp-13" value="Messages" style="endArrow=blockThin;endFill=1;fontSize=11;orthogonal=1;noEdgeStyle=1;" edge="1" parent="1" source="PASu_jCGdVpCxUYywdkp-1" target="PASu_jCGdVpCxUYywdkp-4">
          <mxGeometry relative="1" as="geometry">
            <Array as="points">
              <mxPoint x="147" y="90.83333333333333" />
              <mxPoint x="223" y="141.25" />
            </Array>
          </mxGeometry>
        </mxCell>
        <mxCell id="PASu_jCGdVpCxUYywdkp-14" value="Messages" style="endArrow=blockThin;endFill=1;fontSize=11;orthogonal=1;noEdgeStyle=1;" edge="1" parent="1" source="PASu_jCGdVpCxUYywdkp-2" target="PASu_jCGdVpCxUYywdkp-4">
          <mxGeometry relative="1" as="geometry">
            <Array as="points">
              <mxPoint x="147" y="147.5" />
              <mxPoint x="223" y="153.75" />
            </Array>
          </mxGeometry>
        </mxCell>
        <mxCell id="PASu_jCGdVpCxUYywdkp-15" value="Messages" style="endArrow=blockThin;endFill=1;fontSize=11;orthogonal=1;noEdgeStyle=1;" edge="1" parent="1" source="PASu_jCGdVpCxUYywdkp-4" target="PASu_jCGdVpCxUYywdkp-5">
          <mxGeometry relative="1" as="geometry">
            <Array as="points">
              <mxPoint x="422" y="147.5" />
              <mxPoint x="498" y="115" />
            </Array>
          </mxGeometry>
        </mxCell>
        <mxCell id="PASu_jCGdVpCxUYywdkp-16" value="Photos" style="endArrow=blockThin;endFill=1;fontSize=11;orthogonal=1;noEdgeStyle=1;" edge="1" parent="1" source="PASu_jCGdVpCxUYywdkp-1" target="PASu_jCGdVpCxUYywdkp-6">
          <mxGeometry relative="1" as="geometry">
            <Array as="points">
              <mxPoint x="147" y="74.16666666666667" />
              <mxPoint x="223" y="17.5" />
            </Array>
          </mxGeometry>
        </mxCell>
        <mxCell id="PASu_jCGdVpCxUYywdkp-17" value="Photos" style="endArrow=blockThin;endFill=1;fontSize=11;orthogonal=1;noEdgeStyle=1;" edge="1" parent="1" source="PASu_jCGdVpCxUYywdkp-6" target="PASu_jCGdVpCxUYywdkp-7">
          <mxGeometry relative="1" as="geometry">
            <Array as="points">
              <mxPoint x="422" y="17.5" />
              <mxPoint x="498" y="17.5" />
            </Array>
          </mxGeometry>
        </mxCell>
        <mxCell id="PASu_jCGdVpCxUYywdkp-18" value="Feedback to Parents" style="endArrow=blockThin;endFill=1;fontSize=11;orthogonal=1;noEdgeStyle=1;" edge="1" parent="1" source="PASu_jCGdVpCxUYywdkp-3" target="PASu_jCGdVpCxUYywdkp-8">
          <mxGeometry relative="1" as="geometry">
            <Array as="points">
              <mxPoint x="147" y="238.75" />
              <mxPoint x="223" y="212.5" />
            </Array>
          </mxGeometry>
        </mxCell>
        <mxCell id="PASu_jCGdVpCxUYywdkp-19" value="Parent Feedback" style="endArrow=blockThin;endFill=1;fontSize=11;orthogonal=1;noEdgeStyle=1;" edge="1" parent="1" source="PASu_jCGdVpCxUYywdkp-1" target="PASu_jCGdVpCxUYywdkp-9">
          <mxGeometry relative="1" as="geometry">
            <Array as="points">
              <mxPoint x="149" y="82.5" />
              <mxPoint x="223" y="82.5" />
            </Array>
          </mxGeometry>
        </mxCell>
        <mxCell id="PASu_jCGdVpCxUYywdkp-20" value="Feedback to/from Parents" style="endArrow=blockThin;endFill=1;fontSize=11;orthogonal=1;noEdgeStyle=1;" edge="1" parent="1" source="PASu_jCGdVpCxUYywdkp-8" target="PASu_jCGdVpCxUYywdkp-10">
          <mxGeometry relative="1" as="geometry">
            <Array as="points">
              <mxPoint x="422" y="212.5" />
              <mxPoint x="498" y="186.25" />
            </Array>
          </mxGeometry>
        </mxCell>
        <mxCell id="PASu_jCGdVpCxUYywdkp-21" value="Feedback to/from Parents" style="endArrow=blockThin;endFill=1;fontSize=11;orthogonal=1;noEdgeStyle=1;" edge="1" parent="1" source="PASu_jCGdVpCxUYywdkp-9" target="PASu_jCGdVpCxUYywdkp-10">
          <mxGeometry relative="1" as="geometry">
            <Array as="points">
              <mxPoint x="422" y="82.5" />
              <mxPoint x="498" y="173.75" />
            </Array>
          </mxGeometry>
        </mxCell>
        <mxCell id="PASu_jCGdVpCxUYywdkp-22" value="Notifications" style="endArrow=blockThin;endFill=1;fontSize=11;orthogonal=1;noEdgeStyle=1;" edge="1" parent="1" source="PASu_jCGdVpCxUYywdkp-3" target="PASu_jCGdVpCxUYywdkp-11">
          <mxGeometry relative="1" as="geometry">
            <Array as="points">
              <mxPoint x="147" y="251.25" />
              <mxPoint x="223" y="277.5" />
            </Array>
          </mxGeometry>
        </mxCell>
        <mxCell id="PASu_jCGdVpCxUYywdkp-23" value="Notifications" style="endArrow=blockThin;endFill=1;fontSize=11;orthogonal=1;noEdgeStyle=1;" edge="1" parent="1" source="PASu_jCGdVpCxUYywdkp-11" target="PASu_jCGdVpCxUYywdkp-12">
          <mxGeometry relative="1" as="geometry">
            <Array as="points">
              <mxPoint x="422" y="277.5" />
              <mxPoint x="498" y="277.5" />
            </Array>
          </mxGeometry>
        </mxCell>
      </root>
    </mxGraphModel>
  </diagram>
</mxfile>
